<?xml version="1.0" encoding="iso-8859-1"?>
<!-- Generator: Adobe Illustrator 19.1.0, SVG Export Plug-In . SVG Version: 6.00 Build 0)  -->
<svg version="1.1" id="Capa_1" xmlns="http://www.w3.org/2000/svg" xmlns:xlink="http://www.w3.org/1999/xlink" x="0px" y="0px"
	 viewBox="0 0 66.231 66.231" style="enable-background:new 0 0 66.231 66.231;" xml:space="preserve">
<g>
	<g id="group-3svg">
		<path id="path-1_22_" style="fill:#8B71B5;" d="M62.322,56.408h3v-10h-45.18l1.92,10h3.26l0,0"/>
		<path id="path-2_22_" style="fill:#E56A77;" d="M20.142,46.408h36.487l9.602-20h-50.99L20.142,46.408z"/>
		<path id="path-3_22_" style="fill:#EDC951;" d="M61.142,57.062c0,3.181-2.579,5.761-5.762,5.761c-3.182,0-5.761-2.58-5.761-5.761
			c0-3.182,2.579-5.761,5.761-5.761C58.563,51.301,61.142,53.88,61.142,57.062z"/>
		<path id="path-4_21_" style="fill:#EDC951;" d="M38.049,57.062c0,3.181-2.579,5.761-5.761,5.761c-3.181,0-5.761-2.58-5.761-5.761
			c0-3.182,2.58-5.761,5.761-5.761C35.47,51.301,38.049,53.88,38.049,57.062z"/>
		<path id="path-5_17_" style="fill:#53ECF4;" d="M58.38,23.408l-5.302-11.331l-10.756,4.887V5.408h-12.47l-0.943,6.784
			l-4.587,0.777v10.439h3.701l-0.102,1h14.401v-5.491l2.921,4.491H58.38z"/>
		<path id="path-6_15_" d="M51.629,45.408H15.142c-0.692,0-1.293-0.472-1.457-1.143l-4.901-20c-0.109-0.448-0.007-0.92,0.278-1.283
			c0.284-0.362,0.718-0.574,1.179-0.574h50.99c0.515,0,0.995,0.265,1.269,0.701c0.275,0.437,0.306,0.983,0.083,1.448l-9.601,20
			C52.732,45.077,52.206,45.408,51.629,45.408z M16.319,42.408h34.367l8.161-17H12.154L16.319,42.408z"/>
		<path id="path-7_10_" d="M60.822,55.408h-4.5c-0.828,0-1.5-0.671-1.5-1.5s0.672-1.5,1.5-1.5h3v-7H16.957l1.344,7h2.021
			c0.829,0,1.5,0.671,1.5,1.5s-0.671,1.5-1.5,1.5h-3.26c-0.72,0-1.338-0.511-1.473-1.217l-1.92-10
			c-0.085-0.44,0.031-0.894,0.317-1.239c0.285-0.344,0.709-0.544,1.156-0.544h45.68c0.829,0,1.5,0.671,1.5,1.5v10
			C62.322,54.737,61.651,55.408,60.822,55.408z"/>
		<path id="path-8_8_" d="M43.322,55.408h-10c-0.828,0-1.5-0.671-1.5-1.5s0.672-1.5,1.5-1.5h10c0.829,0,1.5,0.671,1.5,1.5
			S44.151,55.408,43.322,55.408z"/>
		<path id="path-9_6_" d="M50.38,62.323c-4.004,0-7.261-3.257-7.261-7.261s3.257-7.261,7.261-7.261s7.262,3.257,7.262,7.261
			S54.384,62.323,50.38,62.323z M50.38,50.801c-2.35,0-4.261,1.911-4.261,4.261c0,2.349,1.911,4.261,4.261,4.261
			c2.35,0,4.262-1.912,4.262-4.261C54.642,52.712,52.73,50.801,50.38,50.801z"/>
		<path id="path-10_4_" d="M27.288,62.323c-4.004,0-7.261-3.257-7.261-7.261s3.257-7.261,7.261-7.261s7.261,3.257,7.261,7.261
			S31.292,62.323,27.288,62.323z M27.288,50.801c-2.349,0-4.261,1.911-4.261,4.261c0,2.349,1.912,4.261,4.261,4.261
			c2.35,0,4.261-1.912,4.261-4.261C31.549,52.712,29.638,50.801,27.288,50.801z"/>
		<path id="path-11_2_" d="M17.061,54.602c-0.676,0-1.29-0.46-1.457-1.146L6.015,14.014c-0.22-0.224-0.847-0.631-1.528-0.631
			C3.653,13.383,3,14.073,3,14.954c0,0.542,0.266,1.042,0.712,1.338c0.69,0.458,0.878,1.389,0.42,2.079
			c-0.459,0.691-1.388,0.878-2.08,0.42C0.768,17.938,0,16.504,0,14.954c0-2.521,2.013-4.571,4.487-4.571
			c2.096,0,4.228,1.457,4.454,2.967l9.579,39.397c0.195,0.806-0.299,1.616-1.104,1.812C17.297,54.588,17.178,54.602,17.061,54.602z"
			/>
		<path id="path-12_2_" d="M53.381,25.022c-0.576,0-1.125-0.333-1.373-0.893l-4.421-9.996l-8.498,3.913l2.485,4.784
			c0.382,0.736,0.096,1.641-0.639,2.023c-0.734,0.381-1.642,0.096-2.023-0.64l-3.211-6.181c-0.189-0.364-0.22-0.79-0.088-1.178
			c0.133-0.387,0.419-0.704,0.792-0.876l11.311-5.207c0.363-0.168,0.781-0.183,1.157-0.04c0.376,0.142,0.679,0.428,0.842,0.796
			l5.037,11.388c0.335,0.758-0.008,1.643-0.765,1.978C53.789,24.981,53.583,25.022,53.381,25.022z"/>
		<path id="path-13" d="M32.007,24.408H19.822c-0.828,0-1.5-0.671-1.5-1.5v-9.939c0-0.728,0.523-1.351,1.24-1.478l15.425-2.726
			c0.5-0.089,1.014,0.083,1.36,0.457c0.347,0.374,0.479,0.898,0.353,1.392L33.46,23.28C33.29,23.944,32.693,24.408,32.007,24.408z
			 M21.322,21.408h9.52l2.375-9.284l-11.895,2.103V21.408z"/>
		<path id="path-14" d="M36.822,15.908c-0.828,0-1.5-0.671-1.5-1.5v-8h-10v4c0,0.829-0.671,1.5-1.5,1.5c-0.828,0-1.5-0.671-1.5-1.5
			v-5.5c0-0.829,0.672-1.5,1.5-1.5h13c0.829,0,1.5,0.671,1.5,1.5v9.5C38.322,15.237,37.651,15.908,36.822,15.908z"/>
	</g>
</g>
<g>
</g>
<g>
</g>
<g>
</g>
<g>
</g>
<g>
</g>
<g>
</g>
<g>
</g>
<g>
</g>
<g>
</g>
<g>
</g>
<g>
</g>
<g>
</g>
<g>
</g>
<g>
</g>
<g>
</g>
</svg>
